{
  "asset": {
    "version": "2.0",
    "generator": "THREE.GLTFExporter r171"
  },
  "scenes": [
    {
      "name": "Scene",
      "nodes": [
        0,
        1,
        2,
        3,
        4,
        5,
        6,
        7,
        8,
        9,
        10,
        11
      ]
    }
  ],
  "scene": 0,
  "nodes": [
    {
      "matrix": [
        0.9,
        0,
        0,
        0,
        0,
        2.220446049250313e-16,
        1,
        0,
        0,
        -1.2,
        2.6645352591003756e-16,
        0,
        -0.12589759138670292,
        8.834,
        0.32724318128775987,
        1
      ],
      "name": "Thorax",
      "mesh": 0
    },
    {
      "matrix": [
        -0.16647909629071345,
        0.36252311481466015,
        -0.029354756400015305,
        0,
        -0.7140311482312243,
        -0.33809460939255964,
        -0.12590295649941016,
        0,
        -0.08682408883346521,
        6.938893903907228e-18,
        0.492403876506104,
        0,
        -1.0704682351014547,
        9.065,
        1.7031910797493193,
        1
      ],
      "name": "LeftArmUpper",
      "mesh": 1
    },
    {
      "matrix": [
        0.75,
        0,
        0,
        0,
        0,
        1.887379141862766e-16,
        0.85,
        0,
        0,
        -1.5,
        3.3306690738754696e-16,
        0,
        -0.1826024520557758,
        6.811744979960755,
        0.2884791369731574,
        1
      ],
      "name": "Stomach",
      "mesh": 2
    },
    {
      "matrix": [
        0.104801052091754,
        0.37587704831436336,
        0.08793852415718173,
        0,
        -0.5758770483143631,
        0.2736161146605351,
        -0.4832182188440431,
        0,
        -0.32139380484326974,
        0,
        0.38302222155948895,
        0,
        -2.6673525840457315,
        9.024,
        1.0021697979912878,
        1
      ],
      "name": "LeftArmLower",
      "mesh": 3
    },
    {
      "matrix": [
        0.3939231012048832,
        -0.06527036446661393,
        -0.023756469845553876,
        0,
        -0.13891854213354426,
        -0.7403332627186585,
        -0.26945927106677214,
        0,
        1.734723475976807e-18,
        0.17101007166283433,
        -0.4698463103929541,
        0,
        -0.24959369451274205,
        8.849059398444608,
        -1.3456571040483594,
        1
      ],
      "name": "RightArmUpper",
      "mesh": 4
    },
    {
      "matrix": [
        0.2532088886237956,
        0.11454296846907952,
        0.2876893586773653,
        0,
        -0.6035252053883912,
        0.34927554238530345,
        0.39212743075733986,
        0,
        -0.08682408883346521,
        -0.4264342659762216,
        0.24620193825305203,
        0,
        -1.2739748613998119,
        8.60483676864536,
        -1.263861958145637,
        1
      ],
      "name": "RightArmLower",
      "mesh": 5
    },
    {
      "matrix": [
        0.7,
        0,
        0,
        0,
        0,
        1,
        0,
        0,
        0,
        0,
        0.6,
        0,
        -0.12393592029624872,
        4.351504897306894,
        -0.49378908951838096,
        1
      ],
      "name": "RightLegUpper",
      "mesh": 6
    },
    {
      "matrix": [
        0.6577848345501358,
        -0.239414100327968,
        0,
        0,
        0.3420201433256686,
        0.9396926207859084,
        0,
        0,
        0,
        0,
        0.6,
        0,
        -0.4193439763628213,
        4.428536316802036,
        0.95269142108324,
        1
      ],
      "name": "LeftLegUpper",
      "mesh": 6
    },
    {
      "matrix": [
        0.6893654271085455,
        0.12155372436685122,
        0,
        0,
        -0.17364817766693033,
        0.984807753012208,
        0,
        0,
        0,
        0,
        0.6,
        0,
        -0.015690666951322638,
        2.0782162087700966,
        -0.49015810074530963,
        1
      ],
      "name": "RightLegLower",
      "mesh": 6
    },
    {
      "matrix": [
        0.7,
        0,
        0,
        0,
        0,
        1,
        0,
        0,
        0,
        0,
        0.6,
        0,
        -0.890148169283622,
        2.072044271296788,
        0.9661892280735004,
        1
      ],
      "name": "LeftLegLower",
      "mesh": 6
    },
    {
      "matrix": [
        0.5,
        0,
        0,
        0,
        0,
        0.5,
        0,
        0,
        0,
        0,
        0.5,
        0,
        -0.11396089841342277,
        10.13689698861091,
        0.33523349513952705,
        1
      ],
      "name": "Neck",
      "mesh": 7
    },
    {
      "matrix": [
        0.9,
        0,
        0,
        0,
        0,
        0.9,
        0,
        0,
        0,
        0,
        0.9,
        0,
        -0.21319908505093438,
        10.924057284736074,
        0.32154643465140054,
        1
      ],
      "name": "Head",
      "mesh": 8
    }
  ],
  "bufferViews": [
    {
      "buffer": 0,
      "byteOffset": 0,
      "byteLength": 4104,
      "target": 34962,
      "byteStride": 12
    },
    {
      "buffer": 0,
      "byteOffset": 4104,
      "byteLength": 2736,
      "target": 34962,
      "byteStride": 8
    },
    {
      "buffer": 0,
      "byteOffset": 6840,
      "byteLength": 4104,
      "target": 34962,
      "byteStride": 12
    },
    {
      "buffer": 0,
      "byteOffset": 10944,
      "byteLength": 3672,
      "target": 34963
    },
    {
      "buffer": 0,
      "byteOffset": 14616,
      "byteLength": 1944,
      "target": 34962,
      "byteStride": 12
    },
    {
      "buffer": 0,
      "byteOffset": 16560,
      "byteLength": 1296,
      "target": 34962,
      "byteStride": 8
    },
    {
      "buffer": 0,
      "byteOffset": 17856,
      "byteLength": 1944,
      "target": 34962,
      "byteStride": 12
    },
    {
      "buffer": 0,
      "byteOffset": 19800,
      "byteLength": 1632,
      "target": 34963
    },
    {
      "buffer": 0,
      "byteOffset": 21432,
      "byteLength": 4104,
      "target": 34962,
      "byteStride": 12
    },
    {
      "buffer": 0,
      "byteOffset": 25536,
      "byteLength": 2736,
      "target": 34962,
      "byteStride": 8
    },
    {
      "buffer": 0,
      "byteOffset": 28272,
      "byteLength": 4104,
      "target": 34962,
      "byteStride": 12
    },
    {
      "buffer": 0,
      "byteOffset": 32376,
      "byteLength": 3672,
      "target": 34963
    },
    {
      "buffer": 0,
      "byteOffset": 36048,
      "byteLength": 1944,
      "target": 34962,
      "byteStride": 12
    },
    {
      "buffer": 0,
      "byteOffset": 37992,
      "byteLength": 1296,
      "target": 34962,
      "byteStride": 8
    },
    {
      "buffer": 0,
      "byteOffset": 39288,
      "byteLength": 1944,
      "target": 34962,
      "byteStride": 12
    },
    {
      "buffer": 0,
      "byteOffset": 41232,
      "byteLength": 1632,
      "target": 34963
    },
    {
      "buffer": 0,
      "byteOffset": 42864,
      "byteLength": 1944,
      "target": 34962,
      "byteStride": 12
    },
    {
      "buffer": 0,
      "byteOffset": 44808,
      "byteLength": 1296,
      "target": 34962,
      "byteStride": 8
    },
    {
      "buffer": 0,
      "byteOffset": 46104,
      "byteLength": 1944,
      "target": 34962,
      "byteStride": 12
    },
    {
      "buffer": 0,
      "byteOffset": 48048,
      "byteLength": 1632,
      "target": 34963
    },
    {
      "buffer": 0,
      "byteOffset": 49680,
      "byteLength": 1944,
      "target": 34962,
      "byteStride": 12
    },
    {
      "buffer": 0,
      "byteOffset": 51624,
      "byteLength": 1296,
      "target": 34962,
      "byteStride": 8
    },
    {
      "buffer": 0,
      "byteOffset": 52920,
      "byteLength": 1944,
      "target": 34962,
      "byteStride": 12
    },
    {
      "buffer": 0,
      "byteOffset": 54864,
      "byteLength": 1632,
      "target": 34963
    },
    {
      "buffer": 0,
      "byteOffset": 56496,
      "byteLength": 1944,
      "target": 34962,
      "byteStride": 12
    },
    {
      "buffer": 0,
      "byteOffset": 58440,
      "byteLength": 1296,
      "target": 34962,
      "byteStride": 8
    },
    {
      "buffer": 0,
      "byteOffset": 59736,
      "byteLength": 1944,
      "target": 34962,
      "byteStride": 12
    },
    {
      "buffer": 0,
      "byteOffset": 61680,
      "byteLength": 1632,
      "target": 34963
    },
    {
      "buffer": 0,
      "byteOffset": 63312,
      "byteLength": 2352,
      "target": 34962,
      "byteStride": 12
    },
    {
      "buffer": 0,
      "byteOffset": 65664,
      "byteLength": 2352,
      "target": 34962,
      "byteStride": 12
    },
    {
      "buffer": 0,
      "byteOffset": 68016,
      "byteLength": 1568,
      "target": 34962,
      "byteStride": 8
    },
    {
      "buffer": 0,
      "byteOffset": 69584,
      "byteLength": 768,
      "target": 34963
    },
    {
      "buffer": 0,
      "byteOffset": 70352,
      "byteLength": 6732,
      "target": 34962,
      "byteStride": 12
    },
    {
      "buffer": 0,
      "byteOffset": 77084,
      "byteLength": 6732,
      "target": 34962,
      "byteStride": 12
    },
    {
      "buffer": 0,
      "byteOffset": 83816,
      "byteLength": 4488,
      "target": 34962,
      "byteStride": 8
    },
    {
      "buffer": 0,
      "byteOffset": 88304,
      "byteLength": 5760,
      "target": 34963
    }
  ],
  "buffers": [
    {
      "byteLength": 94064,
      "uri": "data:application/octet-stream;base64,"
    }
  ],
  "accessors": [
    {
      "bufferView": 0,
      "componentType": 5126,
      "count": 342,
      "max": [
        0.9848077297210693,
        1.5,
        1
      ],
      "min": [
        -0.9848077297210693,
        -1.5,
        -1
      ],
      "type": "VEC3"
    },
    {
      "bufferView": 1,
      "componentType": 5126,
      "count": 342,
      "max": [
        1,
        1
      ],
      "min": [
        0,
        0
      ],
      "type": "VEC2"
    },
    {
      "bufferView": 2,
      "componentType": 5126,
      "count": 342,
      "max": [
        0.9846804738044739,
        0.9951847195625305,
        0.999870777130127
      ],
      "min": [
        -0.9846804738044739,
        -0.9951847195625305,
        -0.999870777130127
      ],
      "type": "VEC3"
    },
    {
      "bufferView": 3,
      "componentType": 5123,
      "count": 1836,
      "max": [
        341
      ],
      "min": [
        0
      ],
      "type": "SCALAR"
    },
    {
      "bufferView": 4,
      "componentType": 5126,
      "count": 162,
      "max": [
        1,
        1.5,
        1
      ],
      "min": [
        -1,
        -1.5,
        -1
      ],
      "type": "VEC3"
    },
    {
      "bufferView": 5,
      "componentType": 5126,
      "count": 162,
      "max": [
        1,
        1
      ],
      "min": [
        0,
        0
      ],
      "type": "VEC2"
    },
    {
      "bufferView": 6,
      "componentType": 5126,
      "count": 162,
      "max": [
        0.999870777130127,
        0.9951847195625305,
        0.999870777130127
      ],
      "min": [
        -0.999870777130127,
        -0.9951847195625305,
        -0.999870777130127
      ],
      "type": "VEC3"
    },
    {
      "bufferView": 7,
      "componentType": 5123,
      "count": 816,
      "max": [
        161
      ],
      "min": [
        0
      ],
      "type": "SCALAR"
    },
    {
      "bufferView": 8,
      "componentType": 5126,
      "count": 342,
      "max": [
        0.9848077297210693,
        1.5,
        1
      ],
      "min": [
        -0.9848077297210693,
        -1.5,
        -1
      ],
      "type": "VEC3"
    },
    {
      "bufferView": 9,
      "componentType": 5126,
      "count": 342,
      "max": [
        1,
        1
      ],
      "min": [
        0,
        0
      ],
      "type": "VEC2"
    },
    {
      "bufferView": 10,
      "componentType": 5126,
      "count": 342,
      "max": [
        0.9846804738044739,
        0.9951847195625305,
        0.999870777130127
      ],
      "min": [
        -0.9846804738044739,
        -0.9951847195625305,
        -0.999870777130127
      ],
      "type": "VEC3"
    },
    {
      "bufferView": 11,
      "componentType": 5123,
      "count": 1836,
      "max": [
        341
      ],
      "min": [
        0
      ],
      "type": "SCALAR"
    },
    {
      "bufferView": 12,
      "componentType": 5126,
      "count": 162,
      "max": [
        1,
        1.5,
        1
      ],
      "min": [
        -1,
        -1.5,
        -1
      ],
      "type": "VEC3"
    },
    {
      "bufferView": 13,
      "componentType": 5126,
      "count": 162,
      "max": [
        1,
        1
      ],
      "min": [
        0,
        0
      ],
      "type": "VEC2"
    },
    {
      "bufferView": 14,
      "componentType": 5126,
      "count": 162,
      "max": [
        0.999870777130127,
        0.9951847195625305,
        0.999870777130127
      ],
      "min": [
        -0.999870777130127,
        -0.9951847195625305,
        -0.999870777130127
      ],
      "type": "VEC3"
    },
    {
      "bufferView": 15,
      "componentType": 5123,
      "count": 816,
      "max": [
        161
      ],
      "min": [
        0
      ],
      "type": "SCALAR"
    },
    {
      "bufferView": 16,
      "componentType": 5126,
      "count": 162,
      "max": [
        1,
        1.5,
        1
      ],
      "min": [
        -1,
        -1.5,
        -1
      ],
      "type": "VEC3"
    },
    {
      "bufferView": 17,
      "componentType": 5126,
      "count": 162,
      "max": [
        1,
        1
      ],
      "min": [
        0,
        0
      ],
      "type": "VEC2"
    },
    {
      "bufferView": 18,
      "componentType": 5126,
      "count": 162,
      "max": [
        0.999870777130127,
        0.9951847195625305,
        0.999870777130127
      ],
      "min": [
        -0.999870777130127,
        -0.9951847195625305,
        -0.999870777130127
      ],
      "type": "VEC3"
    },
    {
      "bufferView": 19,
      "componentType": 5123,
      "count": 816,
      "max": [
        161
      ],
      "min": [
        0
      ],
      "type": "SCALAR"
    },
    {
      "bufferView": 20,
      "componentType": 5126,
      "count": 162,
      "max": [
        1,
        1.5,
        1
      ],
      "min": [
        -1,
        -1.5,
        -1
      ],
      "type": "VEC3"
    },
    {
      "bufferView": 21,
      "componentType": 5126,
      "count": 162,
      "max": [
        1,
        1
      ],
      "min": [
        0,
        0
      ],
      "type": "VEC2"
    },
    {
      "bufferView": 22,
      "componentType": 5126,
      "count": 162,
      "max": [
        0.999870777130127,
        0.9951847195625305,
        0.999870777130127
      ],
      "min": [
        -0.999870777130127,
        -0.9951847195625305,
        -0.999870777130127
      ],
      "type": "VEC3"
    },
    {
      "bufferView": 23,
      "componentType": 5123,
      "count": 816,
      "max": [
        161
      ],
      "min": [
        0
      ],
      "type": "SCALAR"
    },
    {
      "bufferView": 24,
      "componentType": 5126,
      "count": 162,
      "max": [
        1,
        1.5,
        1
      ],
      "min": [
        -1,
        -1.5,
        -1
      ],
      "type": "VEC3"
    },
    {
      "bufferView": 25,
      "componentType": 5126,
      "count": 162,
      "max": [
        1,
        1
      ],
      "min": [
        0,
        0
      ],
      "type": "VEC2"
    },
    {
      "bufferView": 26,
      "componentType": 5126,
      "count": 162,
      "max": [
        0.999870777130127,
        0.9951847195625305,
        0.999870777130127
      ],
      "min": [
        -0.999870777130127,
        -0.9951847195625305,
        -0.999870777130127
      ],
      "type": "VEC3"
    },
    {
      "bufferView": 27,
      "componentType": 5123,
      "count": 816,
      "max": [
        161
      ],
      "min": [
        0
      ],
      "type": "SCALAR"
    },
    {
      "bufferView": 28,
      "componentType": 5126,
      "count": 196,
      "max": [
        1,
        0.5,
        1
      ],
      "min": [
        -1,
        -0.5,
        -1
      ],
      "type": "VEC3"
    },
    {
      "bufferView": 29,
      "componentType": 5126,
      "count": 196,
      "max": [
        1,
        1,
        1
      ],
      "min": [
        -1,
        -1,
        -1
      ],
      "type": "VEC3"
    },
    {
      "bufferView": 30,
      "componentType": 5126,
      "count": 196,
      "max": [
        1,
        1
      ],
      "min": [
        0,
        0
      ],
      "type": "VEC2"
    },
    {
      "bufferView": 31,
      "componentType": 5123,
      "count": 384,
      "max": [
        195
      ],
      "min": [
        0
      ],
      "type": "SCALAR"
    },
    {
      "bufferView": 32,
      "componentType": 5126,
      "count": 561,
      "max": [
        1,
        1,
        1
      ],
      "min": [
        -1,
        -1,
        -1
      ],
      "type": "VEC3"
    },
    {
      "bufferView": 33,
      "componentType": 5126,
      "count": 561,
      "max": [
        1,
        1,
        1
      ],
      "min": [
        -1,
        -1,
        -1
      ],
      "type": "VEC3"
    },
    {
      "bufferView": 34,
      "componentType": 5126,
      "count": 561,
      "max": [
        1.015625,
        1
      ],
      "min": [
        -0.015625,
        0
      ],
      "type": "VEC2"
    },
    {
      "bufferView": 35,
      "componentType": 5123,
      "count": 2880,
      "max": [
        560
      ],
      "min": [
        0
      ],
      "type": "SCALAR"
    }
  ],
  "materials": [
    {
      "pbrMetallicRoughness": {
        "baseColorFactor": [
          1,
          1,
          1,
          0.5
        ],
        "metallicFactor": 0,
        "roughnessFactor": 1
      }
    },
    {
      "pbrMetallicRoughness": {
        "metallicFactor": 0,
        "roughnessFactor": 1
      },
      "emissiveFactor": [
        0.5840784178830671,
        0.012286488353353374,
        0.012286488353353374
      ]
    },
    {
      "pbrMetallicRoughness": {
        "metallicFactor": 0,
        "roughnessFactor": 1
      },
      "emissiveFactor": [
        0.2663556047920505,
        0.23455058215026167,
        0.005605391621829107
      ]
    },
    {
      "pbrMetallicRoughness": {
        "metallicFactor": 0,
        "roughnessFactor": 1
      }
    },
    {
      "pbrMetallicRoughness": {
        "metallicFactor": 0,
        "roughnessFactor": 1
      }
    },
    {
      "pbrMetallicRoughness": {
        "metallicFactor": 0,
        "roughnessFactor": 1
      }
    },
    {
      "pbrMetallicRoughness": {
        "metallicFactor": 0,
        "roughnessFactor": 1
      }
    },
    {
      "pbrMetallicRoughness": {
        "metallicFactor": 0,
        "roughnessFactor": 1
      }
    },
    {
      "pbrMetallicRoughness": {
        "metallicFactor": 0,
        "roughnessFactor": 1
      }
    }
  ],
  "meshes": [
    {
      "primitives": [
        {
          "mode": 4,
          "attributes": {
            "POSITION": 0,
            "TEXCOORD_0": 1,
            "NORMAL": 2
          },
          "indices": 3,
          "material": 0
        }
      ]
    },
    {
      "primitives": [
        {
          "mode": 4,
          "attributes": {
            "POSITION": 4,
            "TEXCOORD_0": 5,
            "NORMAL": 6
          },
          "indices": 7,
          "material": 1
        }
      ]
    },
    {
      "primitives": [
        {
          "mode": 4,
          "attributes": {
            "POSITION": 8,
            "TEXCOORD_0": 9,
            "NORMAL": 10
          },
          "indices": 11,
          "material": 2
        }
      ]
    },
    {
      "primitives": [
        {
          "mode": 4,
          "attributes": {
            "POSITION": 12,
            "TEXCOORD_0": 13,
            "NORMAL": 14
          },
          "indices": 15,
          "material": 3
        }
      ]
    },
    {
      "primitives": [
        {
          "mode": 4,
          "attributes": {
            "POSITION": 16,
            "TEXCOORD_0": 17,
            "NORMAL": 18
          },
          "indices": 19,
          "material": 4
        }
      ]
    },
    {
      "primitives": [
        {
          "mode": 4,
          "attributes": {
            "POSITION": 20,
            "TEXCOORD_0": 21,
            "NORMAL": 22
          },
          "indices": 23,
          "material": 5
        }
      ]
    },
    {
      "primitives": [
        {
          "mode": 4,
          "attributes": {
            "POSITION": 24,
            "TEXCOORD_0": 25,
            "NORMAL": 26
          },
          "indices": 27,
          "material": 6
        }
      ]
    },
    {
      "primitives": [
        {
          "mode": 4,
          "attributes": {
            "POSITION": 28,
            "NORMAL": 29,
            "TEXCOORD_0": 30
          },
          "indices": 31,
          "material": 7
        }
      ]
    },
    {
      "primitives": [
        {
          "mode": 4,
          "attributes": {
            "POSITION": 32,
            "NORMAL": 33,
            "TEXCOORD_0": 34
          },
          "indices": 35,
          "material": 8
        }
      ]
    }
  ]
}